<?xml version="1.0" encoding="utf-8"?>
<!-- Generator: Adobe Illustrator 19.0.0, SVG Export Plug-In . SVG Version: 6.00 Build 0)  -->
<svg version="1.1" xmlns="http://www.w3.org/2000/svg" xmlns:xlink="http://www.w3.org/1999/xlink" x="0px" y="0px"
	 viewBox="274.7 367.2 56.7 56.3" style="enable-background:new 274.7 367.2 56.7 56.3;" xml:space="preserve">
<style type="text/css">
	.st0{fill:#E6D5C1;}
	.st1{fill:#826774;}
</style>
<g id="Layer_2">
</g>
<g id="Layer_1">
	<g>
		<path class="st0" d="M303,382.2c8.6,0,15.7-2.5,15.7-5.6c0-3.1-7-5.6-15.7-5.6s-15.6,2.5-15.6,5.6c0,0.1,0,0.1,0,0.2
			C287.7,379.8,294.6,382.2,303,382.2z"/>
		<path class="st0" d="M279,381.2c1.1-0.9,1.6-1.9,1.3-2.4c0,0,0,0,0,0c0,0-0.1,0-0.1-0.1c-0.1-0.1-0.3-0.1-0.4-0.1
			c-0.6,0-1.4,0.3-2.1,0.9c-1.1,0.9-1.6,1.9-1.3,2.4c0,0,0,0,0,0c0,0,0,0,0,0c0,0,0,0,0,0C276.7,382.4,277.9,382.1,279,381.2z"/>
		<path class="st1" d="M325.4,409.4c0-1.4-0.6-2.5-2-3.1c-0.5-0.2-1-0.3-1.5-0.3c-0.7-0.1-1.3-0.1-2-0.2c-0.8-0.1-1.1-0.5-1.2-1.3
			c0-0.3,0-0.5,0-0.8c0-1.6,0-3.1,0-4.7h0v-22.5c0,3.1-7,5.6-15.7,5.6c-8.4,0-15.3-2.4-15.6-5.4c0,0,0,0,0,0v9.2l-7.1-7.2
			c0.3,0.5-0.2,1.6-1.3,2.4c-1.1,0.9-2.3,1.2-2.7,0.7l11.1,12.9v0.3h0c0,3,0,6,0,9c0,1.4-0.3,1.6-1.6,1.8c-0.9,0.1-1.7,0.1-2.6,0.3
			c-1.4,0.3-2.5,1.5-2.5,2.8c-0.1,2.1,0,4.1,0,6.2c0,0.7,0.5,1.1,1.1,1.2c0.6,0.1,1.2-0.2,1.5-0.9c0.5-1.2,1-2.4,1.5-3.7
			c0.3-0.7,0.7-1,1.5-1c1.2,0,2.4,0,3.7,0c1.2,0,2.2-0.6,2.7-1.5c0.3-0.4,0.5-0.9,0.6-1.5c0-0.2,0-0.3,0-0.5c0.2-1.1,0.9-1.8,2-2.1
			c1-0.2,1.9,0.2,2.6,1.1c0.4,0.5,0.5,1.1,0.5,1.7c0.1,1.1,0.3,1.9,0.9,2.6c0.4,0.5,1,0.8,1.9,1.1c1,0.3,2.1,0.7,3.1,1
			c0.7,0.2,1.2,0.6,1.6,1.3c0.6,0.9,1.2,1.7,1.7,2.6c0.6,0.8,1.1,1.7,1.7,2.5c0.5,0.7,1.2,0.8,1.8,0.5c0.5-0.3,0.7-0.8,0.6-1.5
			c-0.2-1.3-0.4-2.5-0.5-3.8c-0.3-2.4-0.3-2.3-2.2-3.7c-0.1-0.1-0.1-0.1-0.2-0.2c-1.1-0.9-1.2-1-1-2.6c0.1-1.5,1.2-2.5,2.5-2.6
			c1.4,0,2.4,1,2.6,2.5c0.1,0.6,0.3,1.2,0.6,1.6c0.6,0.9,1.6,1.5,2.9,1.5c1.1,0,2.2,0,3.3,0c1.2,0,1.4,0.1,1.8,1.3
			c0.5,1.1,0.9,2.3,1.4,3.4c0.3,0.7,0.9,1,1.5,0.9c0.7-0.1,1.1-0.6,1.1-1.4C325.4,413.1,325.4,411.3,325.4,409.4z"/>
	</g>
</g>
</svg>
