<?xml version="1.0" encoding="utf-8"?>
<!-- Generator: Adobe Illustrator 26.0.2, SVG Export Plug-In . SVG Version: 6.00 Build 0)  -->
<svg version="1.1" id="Layer_1" xmlns="http://www.w3.org/2000/svg" xmlns:xlink="http://www.w3.org/1999/xlink" x="0px" y="0px"
	 viewBox="0 0 850 600" style="enable-background:new 0 0 850 600;" xml:space="preserve">
<style type="text/css">
	.st0{fill:none;}
	.st1{fill:#555555;}
	.st2{font-family:'Poppins-Regular';}
	.st3{font-size:25.2px;}
	.st4{fill:none;stroke:#999999;}
	.st5{fill:#666666;}
	.st6{font-family:'Helvetica';}
	.st7{font-size:16.2px;}
	.st8{fill:none;stroke:#DDDDDD;stroke-dasharray:3,2;}
	.st9{clip-path:url(#SVGID_00000173118847425402382620000007744096378771226044_);}
	.st10{fill:#FFFFFF;fill-opacity:0;}
	.st11{fill:#6D3E91;}
	.st12{font-size:13.5px;}
	.st13{fill-opacity:0;}
	.st14{fill:none;stroke:#DDDDDD;stroke-linecap:round;stroke-linejoin:round;}
	.st15{fill:none;stroke:#FFFFFF;stroke-width:2.5;stroke-linejoin:round;}
	.st16{fill:none;stroke:#6D3E91;stroke-width:1.5;stroke-linejoin:round;}
	.st17{fill:#777777;}
	.st18{font-size:12.6px;}
</style>
<path class="st0" d="z"/>
<g>
	<a>
		<text transform="matrix(1 0 0 1 15 35.16)" class="st1 st2 st3">Beef production, 1961 to 2018</text>
	</a>
</g>
<g>
	<g>
		<g>
			<line class="st4" x1="88.5" y1="497.9" x2="88.5" y2="502.9"/>
			<line class="st4" x1="766.3" y1="497.9" x2="766.3" y2="502.9"/>
			<line class="st4" x1="195.5" y1="497.9" x2="195.5" y2="502.9"/>
			<line class="st4" x1="314.4" y1="497.9" x2="314.4" y2="502.9"/>
			<line class="st4" x1="433.3" y1="497.9" x2="433.3" y2="502.9"/>
			<line class="st4" x1="552.2" y1="497.9" x2="552.2" y2="502.9"/>
			<line class="st4" x1="671.1" y1="497.9" x2="671.1" y2="502.9"/>
			<text transform="matrix(1 0 0 1 88.526 519.1)" class="st5 st6 st7">1961</text>
			<text transform="matrix(1 0 0 1 730.2113 519.1)" class="st5 st6 st7">2018</text>
			<text transform="matrix(1 0 0 1 177.4807 519.1)" class="st5 st6 st7">1970</text>
			<text transform="matrix(1 0 0 1 296.3806 519.1)" class="st5 st6 st7">1980</text>
			<text transform="matrix(1 0 0 1 415.2806 519.1)" class="st5 st6 st7">1990</text>
			<text transform="matrix(1 0 0 1 534.1807 519.1)" class="st5 st6 st7">2000</text>
			<text transform="matrix(1 0 0 1 653.0806 519.1)" class="st5 st6 st7">2010</text>
		</g>
		<g>
			<text transform="matrix(1 0 0 1 65.5186 503.084)" class="st5 st6 st7">0 t</text>
			<text transform="matrix(1 0 0 1 15.1071 416.284)" class="st5 st6 st7">2 million t</text>
			<text transform="matrix(1 0 0 1 15.1071 329.384)" class="st5 st6 st7">4 million t</text>
			<text transform="matrix(1 0 0 1 15.1071 242.584)" class="st5 st6 st7">6 million t</text>
			<text transform="matrix(1 0 0 1 15.1071 155.684)" class="st5 st6 st7">8 million t</text>
		</g>
		<g>
			<line class="st4" x1="88.5" y1="497.9" x2="766.2" y2="497.9"/>
			<line class="st8" x1="88.5" y1="411.1" x2="766.2" y2="411.1"/>
			<line class="st8" x1="88.5" y1="324.2" x2="766.2" y2="324.2"/>
			<line class="st8" x1="88.5" y1="237.4" x2="766.2" y2="237.4"/>
			<line class="st8" x1="88.5" y1="150.5" x2="766.2" y2="150.5"/>
		</g>
	</g>
	<g>
		<defs>
			<rect id="SVGID_1_" x="78.5" y="58" width="840" height="471.1"/>
		</defs>
		<clipPath id="SVGID_00000062895711015251348920000009960335990400708282_">
			<use xlink:href="#SVGID_1_"  style="overflow:visible;"/>
		</clipPath>
		<g style="clip-path:url(#SVGID_00000062895711015251348920000009960335990400708282_);">
			<g>
				<g>
					<rect x="766.2" y="68" class="st10" width="68.8" height="13.5"/>
					<text transform="matrix(1 0 0 1 770.25 78.8)" class="st11 st6 st12">Brazil</text>
				</g>
			</g>
			<g>
				<rect x="89" y="68" class="st13" width="678" height="430"/>
				<g>
					<path class="st14" d="M88.5,438.4l11.9,0.6l11.9-0.2l11.9-3.3l11.9-2.6l11.9,1.9l11.9-2.3l11.9-8.2l11.8-5.7l11.9-0.8l11.9,2.2
						l11.9-13.1l11.9-4.6l11.9,7.4l11.9-5.5l11.9-9.2l11.9-3.3l11.9-5.4l11.8-3.5l11.9-8.7l11.9-6.5l11.9-2.1l11.9-8.7l11.9-7.4
						l11.9-2.6l11.9-5.2l11.9-3.9l11.9-15.7l11.8-7.6l11.9,4.8l11.9-17.2l11.9-8.9l11.9-3.9l11.9-14.3l11.9-25l11.9-20.7l11.9,11.6
						l11.9,5.5l11.8-26.9l11.9-7.2l11.9-10.6l11.9-13.7l11.9-4l11.9-23.6l11.9-35.5l11.9-18.6l11.9-12.3l11.9,12.1l11.8,3.9
						l11.9-7.8l11.9,3.7l11.9-12l11.9-16l11.9-2.1l11.9,12.9l11.9,6.1l11.9-11.5L766.3,68"/>
				</g>
				<g>
					<path class="st15" d="M88.5,438.4l11.9,0.6l11.9-0.2l11.9-3.3l11.9-2.6l11.9,1.9l11.9-2.3l11.9-8.2l11.8-5.7l11.9-0.8l11.9,2.2
						l11.9-13.1l11.9-4.6l11.9,7.4l11.9-5.5l11.9-9.2l11.9-3.3l11.9-5.4l11.8-3.5l11.9-8.7l11.9-6.5l11.9-2.1l11.9-8.7l11.9-7.4
						l11.9-2.6l11.9-5.2l11.9-3.9l11.9-15.7l11.8-7.6l11.9,4.8l11.9-17.2l11.9-8.9l11.9-3.9l11.9-14.3l11.9-25l11.9-20.7l11.9,11.6
						l11.9,5.5l11.8-26.9l11.9-7.2l11.9-10.6l11.9-13.7l11.9-4l11.9-23.6l11.9-35.5l11.9-18.6l11.9-12.3l11.9,12.1l11.8,3.9
						l11.9-7.8l11.9,3.7l11.9-12l11.9-16l11.9-2.1l11.9,12.9l11.9,6.1l11.9-11.5L766.3,68"/>
					<polyline class="st16" points="88.5,438.4 100.4,439 112.3,438.8 124.2,435.5 136.1,432.9 148,434.8 159.9,432.5 171.8,424.3 
						183.6,418.6 195.5,417.8 207.4,420 219.3,406.9 231.2,402.3 243.1,409.7 255,404.2 266.9,395 278.8,391.7 290.7,386.3 
						302.5,382.8 314.4,374.1 326.3,367.6 338.2,365.5 350.1,356.8 362,349.4 373.9,346.8 385.8,341.6 397.7,337.7 409.6,322 
						421.4,314.4 433.3,319.2 445.2,302 457.1,293.1 469,289.2 480.9,274.9 492.8,249.9 504.7,229.2 516.6,240.8 528.5,246.3 
						540.3,219.4 552.2,212.2 564.1,201.6 576,187.9 587.9,183.9 599.8,160.3 611.7,124.8 623.6,106.2 635.5,93.9 647.4,106 
						659.2,109.9 671.1,102.1 683,105.8 694.9,93.8 706.8,77.8 718.7,75.7 730.6,88.6 742.5,94.7 754.4,83.2 766.3,68 					"/>
					<g>
						<circle class="st11" cx="88.5" cy="438.4" r="1.8"/>
						<circle class="st11" cx="100.4" cy="439" r="1.8"/>
						<circle class="st11" cx="112.3" cy="438.8" r="1.8"/>
						<circle class="st11" cx="124.2" cy="435.5" r="1.8"/>
						<circle class="st11" cx="136.1" cy="432.9" r="1.8"/>
						<circle class="st11" cx="148" cy="434.8" r="1.8"/>
						<circle class="st11" cx="159.9" cy="432.5" r="1.8"/>
						<circle class="st11" cx="171.8" cy="424.3" r="1.8"/>
						<circle class="st11" cx="183.6" cy="418.6" r="1.8"/>
						<circle class="st11" cx="195.5" cy="417.8" r="1.8"/>
						<circle class="st11" cx="207.4" cy="420" r="1.8"/>
						<circle class="st11" cx="219.3" cy="406.9" r="1.8"/>
						<circle class="st11" cx="231.2" cy="402.3" r="1.8"/>
						<circle class="st11" cx="243.1" cy="409.7" r="1.8"/>
						<circle class="st11" cx="255" cy="404.2" r="1.8"/>
						<circle class="st11" cx="266.9" cy="395" r="1.8"/>
						<circle class="st11" cx="278.8" cy="391.7" r="1.8"/>
						<circle class="st11" cx="290.7" cy="386.3" r="1.8"/>
						<circle class="st11" cx="302.5" cy="382.8" r="1.8"/>
						<circle class="st11" cx="314.4" cy="374.1" r="1.8"/>
						<circle class="st11" cx="326.3" cy="367.6" r="1.8"/>
						<circle class="st11" cx="338.2" cy="365.5" r="1.8"/>
						<circle class="st11" cx="350.1" cy="356.8" r="1.8"/>
						<circle class="st11" cx="362" cy="349.4" r="1.8"/>
						<circle class="st11" cx="373.9" cy="346.8" r="1.8"/>
						<circle class="st11" cx="385.8" cy="341.6" r="1.8"/>
						<circle class="st11" cx="397.7" cy="337.7" r="1.8"/>
						<circle class="st11" cx="409.6" cy="322" r="1.8"/>
						<circle class="st11" cx="421.4" cy="314.4" r="1.8"/>
						<circle class="st11" cx="433.3" cy="319.2" r="1.8"/>
						<circle class="st11" cx="445.2" cy="302" r="1.8"/>
						<circle class="st11" cx="457.1" cy="293.1" r="1.8"/>
						<circle class="st11" cx="469" cy="289.2" r="1.8"/>
						<circle class="st11" cx="480.9" cy="274.9" r="1.8"/>
						<circle class="st11" cx="492.8" cy="249.9" r="1.8"/>
						<circle class="st11" cx="504.7" cy="229.2" r="1.8"/>
						<circle class="st11" cx="516.6" cy="240.8" r="1.8"/>
						<circle class="st11" cx="528.5" cy="246.3" r="1.8"/>
						<circle class="st11" cx="540.3" cy="219.4" r="1.8"/>
						<circle class="st11" cx="552.2" cy="212.2" r="1.8"/>
						<circle class="st11" cx="564.1" cy="201.6" r="1.8"/>
						<circle class="st11" cx="576" cy="187.9" r="1.8"/>
						<circle class="st11" cx="587.9" cy="183.9" r="1.8"/>
						<circle class="st11" cx="599.8" cy="160.3" r="1.8"/>
						<circle class="st11" cx="611.7" cy="124.8" r="1.8"/>
						<circle class="st11" cx="623.6" cy="106.2" r="1.8"/>
						<circle class="st11" cx="635.5" cy="93.9" r="1.8"/>
						<circle class="st11" cx="647.4" cy="106" r="1.8"/>
						<circle class="st11" cx="659.2" cy="109.9" r="1.8"/>
						<circle class="st11" cx="671.1" cy="102.1" r="1.8"/>
						<circle class="st11" cx="683" cy="105.8" r="1.8"/>
						<circle class="st11" cx="694.9" cy="93.8" r="1.8"/>
						<circle class="st11" cx="706.8" cy="77.8" r="1.8"/>
						<circle class="st11" cx="718.7" cy="75.7" r="1.8"/>
						<circle class="st11" cx="730.6" cy="88.6" r="1.8"/>
						<circle class="st11" cx="742.5" cy="94.7" r="1.8"/>
						<circle class="st11" cx="754.4" cy="83.2" r="1.8"/>
						<circle class="st11" cx="766.3" cy="68" r="1.8"/>
					</g>
				</g>
			</g>
		</g>
	</g>
</g>
<g>
	<g>
		<text transform="matrix(1 0 0 1 15 554.18)" class="st17 st6 st18">Source: UN Food and Agricultural Organization (FAO)</text>
	</g>
	<text transform="matrix(1 0 0 1 15 568.78)" class="st17 st6 st18">Note: Beef and buffalo (cattle) meat production from both commercial and farm slaughter. Data are given in terms of dressed carcass weight,</text>
	<text transform="matrix(1 0 0 1 15 582.64)" class="st17 st6 st18">excluding offal and slaughter fats.</text>
	<a>
	</a>
	<text transform="matrix(1 0 0 1 575.188 554.18)" class="st17 st6 st18">OurWorldInData.org/meat-production</text>
	<text transform="matrix(1 0 0 1 782.2574 554.18)" class="st17 st6 st18"> • </text>
	<a>
	</a>
	<text transform="matrix(1 0 0 1 793.67 554.18)" class="st17 st6 st18">CC BY</text>
</g>
<path class="st0" d="z"/>
</svg>
