<?xml version="1.0" encoding="utf-8"?>
<!-- Generator: Adobe Illustrator 26.0.2, SVG Export Plug-In . SVG Version: 6.00 Build 0)  -->
<svg version="1.1" id="Layer_1" xmlns="http://www.w3.org/2000/svg" xmlns:xlink="http://www.w3.org/1999/xlink" x="0px" y="0px"
	 viewBox="0 0 850 600" style="enable-background:new 0 0 850 600;" xml:space="preserve">
<style type="text/css">
	.st0{fill:none;}
	.st1{fill:#555555;}
	.st2{font-family:'Georgia';}
	.st3{font-size:25.2px;}
	.st4{fill:#666666;}
	.st5{font-family:'Helvetica';}
	.st6{font-size:14.4px;}
	.st7{fill-opacity:0;}
	.st8{font-size:16.2px;}
	.st9{fill:none;stroke:#999999;}
	.st10{fill:none;stroke:#DDDDDD;stroke-dasharray:3,2;}
	.st11{font-family:'HelveticaNeue-Bold';}
	.st12{font-size:13.5px;}
	.st13{opacity:0.85;fill:#3C4E66;enable-background:new    ;}
	.st14{opacity:0.85;fill:#B13507;enable-background:new    ;}
	.st15{opacity:0.85;fill:#00847E;enable-background:new    ;}
	.st16{opacity:0.85;fill:#6D3E91;enable-background:new    ;}
	.st17{opacity:0.85;fill:#CF0A66;enable-background:new    ;}
	.st18{opacity:0.85;fill:#883039;enable-background:new    ;}
	.st19{opacity:0.85;fill:#00823F;enable-background:new    ;}
	.st20{opacity:0.85;fill:#4C6A9C;enable-background:new    ;}
	.st21{opacity:0.85;fill:#C05917;enable-background:new    ;}
	.st22{opacity:0.85;fill:#D73C50;enable-background:new    ;}
	.st23{fill:#777777;}
	.st24{font-size:12.6px;}
</style>
<path class="st0" d="z"/>
<g>
	<a>
		<text transform="matrix(1 0 0 1 15 35.16)" class="st1 st2 st3">Annual CO₂ emissions from deforestation by product, Brazil</text>
	</a>
	<text transform="matrix(1 0 0 1 15 55.72)" class="st4 st5 st6">This measures the amount of CO₂ emissions linked to deforestation for food production – it is trade-adjusted so</text>
	<text transform="matrix(1 0 0 1 15 73)" class="st4 st5 st6">reflects the carbon footprint of diets within a given country. It is based on the annual average over the period from</text>
	<text transform="matrix(1 0 0 1 15 90.28)" class="st4 st5 st6">2010 to 2014.</text>
</g>
<g>
	<rect x="15" y="107.8" class="st7" width="810" height="396.7"/>
	<g>
		<text transform="matrix(1 0 0 1 163.905 504.5)" class="st4 st5 st8">0 t</text>
		<text transform="matrix(1 0 0 1 244.5789 504.5)" class="st4 st5 st8">100 million t</text>
		<text transform="matrix(1 0 0 1 368.3789 504.5)" class="st4 st5 st8">200 million t</text>
		<text transform="matrix(1 0 0 1 492.2789 504.5)" class="st4 st5 st8">300 million t</text>
		<text transform="matrix(1 0 0 1 616.0789 504.5)" class="st4 st5 st8">400 million t</text>
	</g>
	<g>
		<line class="st9" x1="163.9" y1="483.3" x2="163.9" y2="107.8"/>
		<line class="st10" x1="287.8" y1="483.3" x2="287.8" y2="107.8"/>
		<line class="st10" x1="411.6" y1="483.3" x2="411.6" y2="107.8"/>
		<line class="st10" x1="535.5" y1="483.3" x2="535.5" y2="107.8"/>
		<line class="st10" x1="659.3" y1="483.3" x2="659.3" y2="107.8"/>
	</g>
	<g transform="translate(0, 122.82)">
		<text transform="matrix(1 0 0 1 129.403 7.324219e-06)" class="st1 st11 st12">Beef</text>
		<rect x="163.9" y="-15" class="st13" width="577.5" height="30"/>
		<text transform="matrix(1 0 0 1 746.4 7.324219e-06)" class="st4 st5 st12">466.3 million t</text>
	</g>
	<g transform="translate(0, 160.37)">
		<text transform="matrix(1 0 0 1 11.9011 0)" class="st1 st11 st12">Vegetables, fruits, nuts</text>
		<rect x="163.9" y="-15" class="st14" width="14.7" height="30"/>
		<text transform="matrix(1 0 0 1 183.6 0)" class="st4 st5 st12">11.85 million t</text>
	</g>
	<g transform="translate(0, 197.92000000000002)">
		<text transform="matrix(1 0 0 1 130.1725 -1.508984e-05)" class="st1 st11 st12">Rice</text>
		<rect x="163.9" y="-15" class="st15" width="12.7" height="30"/>
		<text transform="matrix(1 0 0 1 181.6 -1.508984e-05)" class="st4 st5 st12">10.28 million t</text>
	</g>
	<g transform="translate(0, 235.47000000000003)">
		<text transform="matrix(1 0 0 1 49.1736 -3.029687e-05)" class="st1 st11 st12">Oilseed products</text>
		<rect x="163.9" y="-15" class="st16" width="9.3" height="30"/>
		<text transform="matrix(1 0 0 1 178.2 -3.029687e-05)" class="st4 st5 st12">7.54 million t</text>
	</g>
	<g transform="translate(0, 273.02000000000004)">
		<text transform="matrix(1 0 0 1 120.8847 0)" class="st1 st11 st12">Sugar</text>
		<rect x="163.9" y="-15" class="st17" width="8.2" height="30"/>
		<text transform="matrix(1 0 0 1 177.1 0)" class="st4 st5 st12">6.62 million t</text>
	</g>
	<g transform="translate(0, 310.57000000000005)">
		<text transform="matrix(1 0 0 1 82.383 0)" class="st1 st11 st12">Other crops</text>
		<rect x="163.9" y="-15" class="st18" width="6.3" height="30"/>
		<text transform="matrix(1 0 0 1 175.2 0)" class="st4 st5 st12">5.09 million t</text>
	</g>
	<g transform="translate(0, 348.12000000000006)">
		<text transform="matrix(1 0 0 1 72.1503 0)" class="st1 st11 st12">Other cereals</text>
		<rect x="163.9" y="-15" class="st19" width="2.9" height="30"/>
		<text transform="matrix(1 0 0 1 171.8 0)" class="st4 st5 st12">2.33 million t</text>
	</g>
	<g transform="translate(0, 385.6700000000001)">
		<text transform="matrix(1 0 0 1 85.6773 0)" class="st1 st11 st12">Plant fibers</text>
		<rect x="163.9" y="-15" class="st20" width="1.4" height="30"/>
		<text transform="matrix(1 0 0 1 170.3 0)" class="st4 st5 st12">1.13 million t</text>
	</g>
	<g transform="translate(0, 423.2200000000001)">
		<text transform="matrix(1 0 0 1 117.9013 0)" class="st1 st11 st12">Wheat</text>
		<rect x="163.9" y="-15" class="st21" width="0.4" height="30"/>
		<text transform="matrix(1 0 0 1 169.3 0)" class="st4 st5 st12">311,205 t</text>
	</g>
	<g transform="translate(0, 460.7700000000001)">
		<text transform="matrix(1 0 0 1 25.144 0)" class="st1 st11 st12">Other meat products</text>
		<rect x="163.9" y="-15" class="st22" width="0" height="30"/>
		<text transform="matrix(1 0 0 1 168.9 0)" class="st4 st5 st12">0 t</text>
	</g>
</g>
<g>
	<g>
		<text transform="matrix(1 0 0 1 15 539.58)" class="st23 st5 st24">Source: Pendrill et al. (2019). Agricultural and forestry trade drives large share of tropical deforestation emissions.</text>
	</g>
	<text transform="matrix(1 0 0 1 15 554.18)" class="st23 st5 st24">Note: Trade adjustment means that deforestation linked to the production of imported food products is added to a country&apos;s total; exported</text>
	<text transform="matrix(1 0 0 1 15 568.04)" class="st23 st5 st24">emissions are subtracted from its total.</text>
	<a>
	</a>
	<text transform="matrix(1 0 0 1 15 582.48)" class="st23 st5 st24">OurWorldInData.org/forests</text>
	<text transform="matrix(1 0 0 1 168.8333 582.48)" class="st23 st5 st24"> • </text>
	<a>
	</a>
	<text transform="matrix(1 0 0 1 180.2458 582.48)" class="st23 st5 st24">CC BY</text>
</g>
<path class="st0" d="z"/>
</svg>
