<?xml version="1.0" encoding="utf-8"?>
<!-- Generator: Adobe Illustrator 26.0.2, SVG Export Plug-In . SVG Version: 6.00 Build 0)  -->
<svg version="1.1" id="Layer_1" xmlns="http://www.w3.org/2000/svg" xmlns:xlink="http://www.w3.org/1999/xlink" x="0px" y="0px"
	 viewBox="0 0 850 600" style="enable-background:new 0 0 850 600;" xml:space="preserve">
<style type="text/css">
	.st0{fill:none;}
	.st1{fill:#555555;}
	.st2{font-family:'Poppins-Regular';}
	.st3{font-size:25.2px;}
	.st4{fill:#666666;}
	.st5{font-size:14.4px;}
	.st6{fill:none;stroke:#999999;}
	.st7{font-family:'Helvetica';}
	.st8{font-size:16.2px;}
	.st9{fill:none;stroke:#DDDDDD;stroke-dasharray:3,2;}
	.st10{clip-path:url(#SVGID_00000173845956494325192350000004200231330357870769_);}
	.st11{fill:none;stroke:#999999;stroke-width:0.5;}
	.st12{fill:#FFFFFF;fill-opacity:0;}
	.st13{fill:#0F739C;}
	.st14{font-size:13.5px;}
	.st15{fill:#3C4E66;}
	.st16{fill:#D59207;}
	.st17{fill:#7C4528;}
	.st18{fill:#6D3E91;}
	.st19{fill:#636364;}
	.st20{fill:#0C0B0C;}
	.st21{fill:#AF8454;}
	.st22{fill:#789C68;}
	.st23{fill:#00823F;}
	.st24{fill:#B11810;}
	.st25{fill-opacity:0;}
	.st26{fill:#B11810;fill-opacity:0.7;}
	.st27{fill:#00823F;fill-opacity:0.7;}
	.st28{fill:#81A870;fill-opacity:0.7;}
	.st29{fill:#BC8E5A;fill-opacity:0.7;}
	.st30{fill:#0C0B0C;fill-opacity:0.7;}
	.st31{fill:#636364;fill-opacity:0.7;}
	.st32{fill:#6D3E91;fill-opacity:0.7;}
	.st33{fill:#7C4528;fill-opacity:0.7;}
	.st34{fill:#F4A708;fill-opacity:0.7;}
	.st35{fill:#3C4E66;fill-opacity:0.7;}
	.st36{fill:#0F739C;fill-opacity:0.7;}
	.st37{fill:none;stroke:#94140D;stroke-width:0.5;stroke-linecap:round;stroke-opacity:0.7;}
	.st38{fill:none;stroke:#006D35;stroke-width:0.5;stroke-linecap:round;stroke-opacity:0.7;}
	.st39{fill:none;stroke:#6C8D5E;stroke-width:0.5;stroke-linecap:round;stroke-opacity:0.7;}
	.st40{fill:none;stroke:#9D774B;stroke-width:0.5;stroke-linecap:round;stroke-opacity:0.7;}
	.st41{fill:none;stroke:#0A090A;stroke-width:0.5;stroke-linecap:round;stroke-opacity:0.7;}
	.st42{fill:none;stroke:#535354;stroke-width:0.5;stroke-linecap:round;stroke-opacity:0.7;}
	.st43{fill:none;stroke:#5B3479;stroke-width:0.5;stroke-linecap:round;stroke-opacity:0.7;}
	.st44{fill:none;stroke:#683A21;stroke-width:0.5;stroke-linecap:round;stroke-opacity:0.7;}
	.st45{fill:none;stroke:#CC8C07;stroke-width:0.5;stroke-linecap:round;stroke-opacity:0.7;}
	.st46{fill:none;stroke:#324155;stroke-width:0.5;stroke-linecap:round;stroke-opacity:0.7;}
	.st47{fill:none;stroke:#0D6083;stroke-width:0.5;stroke-linecap:round;stroke-opacity:0.7;}
	.st48{fill:#777777;}
	.st49{font-size:12.6px;}
</style>
<path class="st0" d="z"/>
<g>
	<a>
		<text transform="matrix(1 0 0 1 15 35.16)" class="st1 st2 st3">Drivers of forest loss in the Brazilian Amazon</text>
	</a>
	<text transform="matrix(1 0 0 1 15 55.72)" class="st4 st2 st5">Annual forest loss includes permanent conversion of forest to other land uses (deforestation) and temporary forest</text>
	<text transform="matrix(1 0 0 1 15 73)" class="st4 st2 st5">loss (degradation). This is measured in hectares.</text>
</g>
<g>
	<g>
		<g>
			<line class="st6" x1="115.7" y1="511.6" x2="115.7" y2="516.6"/>
			<line class="st6" x1="697.5" y1="511.6" x2="697.5" y2="516.6"/>
			<line class="st6" x1="261.2" y1="511.6" x2="261.2" y2="516.6"/>
			<line class="st6" x1="358.2" y1="511.6" x2="358.2" y2="516.6"/>
			<line class="st6" x1="455.1" y1="511.6" x2="455.1" y2="516.6"/>
			<line class="st6" x1="552.1" y1="511.6" x2="552.1" y2="516.6"/>
			<text transform="matrix(1 0 0 1 115.742 532.8)" class="st4 st7 st8">2001</text>
			<text transform="matrix(1 0 0 1 661.4963 532.8)" class="st4 st7 st8">2013</text>
			<text transform="matrix(1 0 0 1 243.1807 532.8)" class="st4 st7 st8">2004</text>
			<text transform="matrix(1 0 0 1 340.1807 532.8)" class="st4 st7 st8">2006</text>
			<text transform="matrix(1 0 0 1 437.0807 532.8)" class="st4 st7 st8">2008</text>
			<text transform="matrix(1 0 0 1 534.0806 532.8)" class="st4 st7 st8">2010</text>
		</g>
		<g>
			<text transform="matrix(1 0 0 1 79.2101 516.784)" class="st4 st7 st8">0 ha</text>
			<text transform="matrix(1 0 0 1 29.6609 466.184)" class="st4 st7 st8">500,000 ha</text>
			<text transform="matrix(1 0 0 1 28.7987 415.584)" class="st4 st7 st8">1 million ha</text>
			<text transform="matrix(1 0 0 1 15.2881 365.084)" class="st4 st7 st8">1.5 million ha</text>
			<text transform="matrix(1 0 0 1 28.7987 314.484)" class="st4 st7 st8">2 million ha</text>
			<text transform="matrix(1 0 0 1 15.2881 263.884)" class="st4 st7 st8">2.5 million ha</text>
			<text transform="matrix(1 0 0 1 28.7987 213.284)" class="st4 st7 st8">3 million ha</text>
			<text transform="matrix(1 0 0 1 15.2881 162.684)" class="st4 st7 st8">3.5 million ha</text>
			<text transform="matrix(1 0 0 1 28.7987 112.184)" class="st4 st7 st8">4 million ha</text>
		</g>
		<g>
			<line class="st6" x1="115.7" y1="511.6" x2="697.5" y2="511.6"/>
			<line class="st9" x1="115.7" y1="461" x2="697.5" y2="461"/>
			<line class="st9" x1="115.7" y1="410.4" x2="697.5" y2="410.4"/>
			<line class="st9" x1="115.7" y1="359.9" x2="697.5" y2="359.9"/>
			<line class="st9" x1="115.7" y1="309.3" x2="697.5" y2="309.3"/>
			<line class="st9" x1="115.7" y1="258.7" x2="697.5" y2="258.7"/>
			<line class="st9" x1="115.7" y1="208.1" x2="697.5" y2="208.1"/>
			<line class="st9" x1="115.7" y1="157.5" x2="697.5" y2="157.5"/>
			<line class="st9" x1="115.7" y1="107" x2="697.5" y2="107"/>
		</g>
	</g>
	<g>
		<defs>
			<rect id="SVGID_1_" x="115.7" y="92.2" width="820" height="881.2"/>
		</defs>
		<clipPath id="SVGID_00000102529097961685035330000001961275408394098328_">
			<use xlink:href="#SVGID_1_"  style="overflow:visible;"/>
		</clipPath>
		<g style="clip-path:url(#SVGID_00000102529097961685035330000001961275408394098328_);">
			<g>
				<g>
					<g>
						<path class="st11" d="M701.5,377.4h3V262.2h24"/>
					</g>
					<rect x="697.5" y="255.5" class="st12" width="87" height="13.5"/>
					<text transform="matrix(1 0 0 1 732.535 266.3)" class="st13 st7 st14">Flooding</text>
				</g>
				<g>
					<g>
						<path class="st11" d="M701.5,378h6v-93h21"/>
					</g>
					<rect x="697.5" y="271" class="st12" width="111.8" height="28.1"/>
					<text transform="matrix(1 0 0 1 732.535 281.8)" class="st15 st7 st14">Natural</text>
					<text transform="matrix(1 0 0 1 732.535 296.65)" class="st15 st7 st14">disturbances</text>
				</g>
				<g>
					<g>
						<path class="st11" d="M701.5,380h9v-72.1h18"/>
					</g>
					<rect x="697.5" y="301.1" class="st12" width="58.2" height="13.5"/>
					<text transform="matrix(1 0 0 1 732.535 311.9)" class="st16 st7 st14">Fire</text>
				</g>
				<g>
					<g>
						<path class="st11" d="M701.5,387.9h12v-64.5h15"/>
					</g>
					<rect x="697.5" y="316.6" class="st12" width="137.5" height="13.5"/>
					<text transform="matrix(1 0 0 1 732.535 327.4)" class="st17 st7 st14">Selective logging</text>
				</g>
				<g>
					<g>
						<path class="st11" d="M701.5,394.8h15v-48.6h12"/>
					</g>
					<rect x="697.5" y="332.1" class="st12" width="114" height="28.1"/>
					<text transform="matrix(1 0 0 1 732.535 342.9)" class="st18 st7 st14">Other</text>
					<text transform="matrix(1 0 0 1 732.535 357.75)" class="st18 st7 st14">infrastructure</text>
				</g>
				<g>
					<g>
						<path class="st11" d="M701.5,395.8h18V369h9"/>
					</g>
					<rect x="697.5" y="362.2" class="st12" width="74.2" height="13.5"/>
					<text transform="matrix(1 0 0 1 732.535 373)" class="st19 st7 st14">Roads</text>
				</g>
				<g>
					<g>
						<path class="st11" d="M701.5,398.5h21v-14h6"/>
					</g>
					<rect x="697.5" y="377.7" class="st12" width="74.8" height="13.5"/>
					<text transform="matrix(1 0 0 1 732.535 388.5)" class="st20 st7 st14">Mining</text>
				</g>
				<g>
					<g>
						<path class="st11" d="M701.5,414.6h24v-7.4h3"/>
					</g>
					<rect x="697.5" y="393.2" class="st12" width="104.8" height="28.1"/>
					<text transform="matrix(1 0 0 1 732.535 404)" class="st21 st7 st14">Small-scale</text>
					<text transform="matrix(1 0 0 1 732.535 418.85)" class="st21 st7 st14">farming</text>
				</g>
				<g>
					<g>
						<path class="st11" d="M701.5,430.7h24v13.9h3"/>
					</g>
					<rect x="697.5" y="423.3" class="st12" width="132.2" height="42.7"/>
					<text transform="matrix(1 0 0 1 732.535 434.1)" class="st22 st7 st14">Tree plantations</text>
					<text transform="matrix(1 0 0 1 732.535 448.95)" class="st22 st7 st14">(including oil</text>
					<text transform="matrix(1 0 0 1 732.535 463.8)" class="st22 st7 st14">palm)</text>
				</g>
				<g>
					<g>
						<path class="st11" d="M701.5,467.6h21v7.1h6"/>
					</g>
					<rect x="697.5" y="468" class="st12" width="120.9" height="13.5"/>
					<text transform="matrix(1 0 0 1 732.535 478.8)" class="st23 st7 st14">Pasture (beef)</text>
				</g>
				<g>
					<g>
						<path class="st11" d="M701.5,507.2h21v-9.7h6"/>
					</g>
					<rect x="697.5" y="483.5" class="st12" width="128.3" height="28.1"/>
					<text transform="matrix(1 0 0 1 732.535 494.3)" class="st24 st7 st14">Commercial</text>
					<text transform="matrix(1 0 0 1 732.535 509.15)" class="st24 st7 st14">crops (e.g. soy)</text>
				</g>
			</g>
			<g>
				<rect x="115.7" y="92.2" class="st25" width="581.8" height="419.4"/>
				<path class="st26" d="M115.7,483.3l48.5-13.7l48.5-13.6l48.5-20l48.5,42.4l48.5,14.2l48.4,11l48.5,2.7l48.5-0.5l48.5-4.3
					l48.5,4.8l48.5-6.6l48.4,3.1l0,8.8H115.7"/>
				<path class="st27" d="M115.7,329.5l48.5-119.7l48.5-33.1h48.5l48.5,32.1l48.5,95.5l48.4,39.8l48.5,26.2l48.5,49.9l48.5,19
					l48.5-7.5l48.5,12.7l48.4-11.9v70.3l-48.4-3.1l-48.5,6.6l-48.5-4.8l-48.5,4.3l-48.5,0.5l-48.5-2.7l-48.4-11l-48.5-14.2
					L261.2,436l-48.5,20l-48.5,13.6l-48.5,13.7"/>
				<path class="st28" d="M115.7,325.1l48.5-119.7l48.5-31.4l48.5-6.6l48.5,36.2l48.5,98.1l48.4,38.4l48.5,28.5l48.5,48l48.5,21.7
					l48.5-9.2l48.5,12.7l48.4-12.8v3.5l-48.4,11.9l-48.5-12.7l-48.5,7.5l-48.5-19l-48.5-49.9l-48.5-26.2l-48.4-39.8l-48.5-95.5
					l-48.5-32.1h-48.5l-48.5,33.1l-48.5,119.7"/>
				<path class="st29" d="M115.7,299.9l48.5-124.1l48.5-38l48.5-12.4l48.5,49l48.5,96.3l48.4,38.1l48.5,19.6l48.5,57.8l48.5,24.6
					l48.5-9.2l48.5,16.7l48.4-18.1V429l-48.4,12.8l-48.5-12.7l-48.5,9.2l-48.5-21.7l-48.5-48l-48.5-28.5l-48.4-38.4l-48.5-98.1
					l-48.5-36.2l-48.5,6.6l-48.5,31.4l-48.5,119.7"/>
				<path class="st30" d="M115.7,299l48.5-124.2l48.5-37l48.5-12.4l48.5,49l48.5,96.3l48.4,37.2l48.5,19.6l48.5,58.7l48.5,24.2
					l48.5-8.8l48.5,16.7l48.4-21.6v3.5l-48.4,18.1l-48.5-16.7l-48.5,9.2l-48.5-24.6l-48.5-57.8l-48.5-19.6l-48.4-38.1l-48.5-96.3
					l-48.5-49l-48.5,12.4l-48.5,38l-48.5,124.1"/>
				<path class="st31" d="M115.7,297.7l48.5-126l48.5-37.4l48.5-14.7l48.5,51.3l48.5,98.1l48.4,37.6l48.5,16l48.5,62.7l48.5,22.9
					l48.5-7.5l48.5,14.5l48.4-20.2v1.7l-48.4,21.6l-48.5-16.7l-48.5,8.8l-48.5-24.2l-48.5-58.7l-48.5-19.6l-48.4-37.2l-48.5-96.3
					l-48.5-49l-48.5,12.4l-48.5,37L115.7,299"/>
				<path class="st32" d="M115.7,296.7l48.5-126.3l48.5-37l48.5-15.1l48.5,51.3l48.5,98.5l48.4,37.1l48.5,15.7l48.5,63.4l48.5,23
					l48.5-6.6l48.5,13.2l48.4-19.3v0.4l-48.4,20.2l-48.5-14.5l-48.5,7.5l-48.5-22.9l-48.5-62.7l-48.5-16L358.2,269l-48.5-98.1
					l-48.5-51.3l-48.5,14.7l-48.5,37.4l-48.5,126"/>
				<path class="st33" d="M115.7,287l48.5-126.3l48.5-42.4l48.5-13.3l48.5,50.4l48.5,107.5l48.4,32.6l48.5,19.2l48.5,60.8l48.5,20.3
					l48.5,0.5l48.5,0.8l48.4-15.8v13.3l-48.4,19.3l-48.5-13.2l-48.5,6.6l-48.5-23l-48.5-63.4l-48.5-15.7l-48.4-37.1l-48.5-98.5
					l-48.5-51.3l-48.5,15.1l-48.5,37l-48.5,126.3"/>
				<path class="st34" d="M115.7,284.4l48.5-135.2l48.5-35.4l48.5-16.7l48.5,18.6l48.5,139.2l48.4-4.5l48.5,57.3l48.5,63.4
					l48.5-29.6l48.5,42.4l48.5,6.1l48.4-11.3v2.6l-48.4,15.8l-48.5-0.8l-48.5-0.5l-48.5-20.3l-48.5-60.8l-48.5-19.2l-48.4-32.6
					l-48.5-107.5L261.2,105l-48.5,13.3l-48.5,42.4L115.7,287"/>
				<path class="st35" d="M115.7,284.4l48.5-138.8l48.5-35.3l48.5-15.5l48.5,18.2l48.5,139.2l48.4-4l48.5,57.7l48.5,62.1l48.5-31
					l48.5,38.1l48.5,9.6l48.4-7.3v1.3L649.1,390l-48.5-6.1l-48.5-42.4l-48.5,29.6l-48.5-63.4l-48.5-57.3l-48.4,4.5l-48.5-139.2
					l-48.5-18.6l-48.5,16.7l-48.5,35.4L115.7,284.4"/>
				<path class="st36" d="M115.7,284.4l48.5-146.8l48.5-27.3l48.5-18.1l48.5,19.1l48.5,139.2l48.4-3.2l48.5,58.6l48.5,61.1l48.5-30
					l48.5,36.4l48.5,9.6l48.4-5.6l0,0l-48.4,7.3l-48.5-9.6L552.1,337l-48.5,31l-48.5-62.1l-48.5-57.7l-48.4,4L309.7,113l-48.5-18.2
					l-48.5,15.5l-48.5,35.3L115.7,284.4"/>
				<path class="st37" d="M115.7,483.3l48.5-13.7l48.5-13.6l48.5-20l48.5,42.4l48.5,14.2l48.4,11l48.5,2.7l48.5-0.5l48.5-4.3
					l48.5,4.8l48.5-6.6l48.4,3.1"/>
				<path class="st38" d="M115.7,329.5l48.5-119.7l48.5-33.1h48.5l48.5,32.1l48.5,95.5l48.4,39.8l48.5,26.2l48.5,49.9l48.5,19
					l48.5-7.5l48.5,12.7l48.4-11.9"/>
				<path class="st39" d="M115.7,325.1l48.5-119.7l48.5-31.4l48.5-6.6l48.5,36.2l48.5,98.1l48.4,38.4l48.5,28.5l48.5,48l48.5,21.7
					l48.5-9.2l48.5,12.7l48.4-12.8"/>
				<path class="st40" d="M115.7,299.9l48.5-124.1l48.5-38l48.5-12.4l48.5,49l48.5,96.3l48.4,38.1l48.5,19.6l48.5,57.8l48.5,24.6
					l48.5-9.2l48.5,16.7l48.4-18.1"/>
				<path class="st41" d="M115.7,299l48.5-124.2l48.5-37l48.5-12.4l48.5,49l48.5,96.3l48.4,37.2l48.5,19.6l48.5,58.7l48.5,24.2
					l48.5-8.8l48.5,16.7l48.4-21.6"/>
				<path class="st42" d="M115.7,297.7l48.5-126l48.5-37.4l48.5-14.7l48.5,51.3l48.5,98.1l48.4,37.6l48.5,16l48.5,62.7l48.5,22.9
					l48.5-7.5l48.5,14.5l48.4-20.2"/>
				<path class="st43" d="M115.7,296.7l48.5-126.3l48.5-37l48.5-15.1l48.5,51.3l48.5,98.5l48.4,37.1l48.5,15.7l48.5,63.4l48.5,23
					l48.5-6.6l48.5,13.2l48.4-19.3"/>
				<path class="st44" d="M115.7,287l48.5-126.3l48.5-42.4l48.5-13.3l48.5,50.4l48.5,107.5l48.4,32.6l48.5,19.2l48.5,60.8l48.5,20.3
					l48.5,0.5l48.5,0.8l48.4-15.8"/>
				<path class="st45" d="M115.7,284.4l48.5-135.2l48.5-35.4l48.5-16.7l48.5,18.6l48.5,139.2l48.4-4.5l48.5,57.3l48.5,63.4
					l48.5-29.6l48.5,42.4l48.5,6.1l48.4-11.3"/>
				<path class="st46" d="M115.7,284.4l48.5-138.8l48.5-35.3l48.5-15.5l48.5,18.2l48.5,139.2l48.4-4l48.5,57.7l48.5,62.1l48.5-31
					l48.5,38.1l48.5,9.6l48.4-7.3"/>
				<path class="st47" d="M115.7,284.4l48.5-146.8l48.5-27.3l48.5-18.1l48.5,19.1l48.5,139.2l48.4-3.2l48.5,58.6l48.5,61.1l48.5-30
					l48.5,36.4l48.5,9.6l48.4-5.6"/>
			</g>
		</g>
	</g>
</g>
<g>
	<g>
		<text transform="matrix(1 0 0 1 15 567.88)" class="st48 st7 st49">Source: Tyukavina et al. (2017). Types and rates of forest disturbance in Brazilian Legal Amazon, 2000–2013. Science.</text>
	</g>
	<a>
	</a>
	<text transform="matrix(1 0 0 1 15 582.48)" class="st48 st7 st49">OurWorldInData.org/forests</text>
	<text transform="matrix(1 0 0 1 168.8333 582.48)" class="st48 st7 st49"> • </text>
	<a>
	</a>
	<text transform="matrix(1 0 0 1 180.2458 582.48)" class="st48 st7 st49">CC BY</text>
</g>
<path class="st0" d="z"/>
</svg>
