<?xml version="1.0" encoding="utf-8"?>
<!-- Generator: Adobe Illustrator 26.0.2, SVG Export Plug-In . SVG Version: 6.00 Build 0)  -->
<svg version="1.1" id="Layer_1" xmlns="http://www.w3.org/2000/svg" xmlns:xlink="http://www.w3.org/1999/xlink" x="0px" y="0px"
	 viewBox="0 0 850 600" style="enable-background:new 0 0 850 600;" xml:space="preserve">
<style type="text/css">
	.st0{fill:none;}
	.st1{fill:#555555;}
	.st2{font-family:'Poppins-Regular';}
	.st3{font-size:25.2px;}
	.st4{fill:#666666;}
	.st5{font-size:14.4px;}
	.st6{fill:none;stroke:#999999;}
	.st7{font-family:'Helvetica';}
	.st8{font-size:16.2px;}
	.st9{fill:none;stroke:#DDDDDD;stroke-dasharray:3,2;}
	.st10{clip-path:url(#SVGID_00000041279410102265680080000004221487602818142336_);}
	.st11{fill:#FFFFFF;fill-opacity:0;}
	.st12{fill:#3C4E66;}
	.st13{font-size:13.5px;}
	.st14{fill:#00847E;}
	.st15{fill:#B13507;}
	.st16{fill-opacity:0;}
	.st17{fill:none;stroke:#DDDDDD;stroke-linecap:round;stroke-linejoin:round;}
	.st18{fill:none;stroke:#FFFFFF;stroke-width:2.5;stroke-linejoin:round;}
	.st19{fill:none;stroke:#00847E;stroke-width:1.5;stroke-linejoin:round;}
	.st20{fill:none;stroke:#B13507;stroke-width:1.5;stroke-linejoin:round;}
	.st21{fill:none;stroke:#3C4E66;stroke-width:1.5;stroke-linejoin:round;}
	.st22{fill:#777777;}
	.st23{font-size:12.6px;}
</style>
<path class="st0" d="z"/>
<g>
	<a>
		<text transform="matrix(1 0 0 1 15 35.16)" class="st1 st2 st3">Change in soy production, yield and area harvested, Brazil</text>
	</a>
	<text transform="matrix(1 0 0 1 15 55.72)" class="st4 st2 st5">Shown is the change in soy production, yield and area used to grow the crop over time.</text>
</g>
<g>
	<g>
		<g>
			<line class="st6" x1="71" y1="526.2" x2="71" y2="531.2"/>
			<line class="st6" x1="708.1" y1="526.2" x2="708.1" y2="531.2"/>
			<line class="st6" x1="139.9" y1="526.2" x2="139.9" y2="531.2"/>
			<line class="st6" x1="226" y1="526.2" x2="226" y2="531.2"/>
			<line class="st6" x1="312.1" y1="526.2" x2="312.1" y2="531.2"/>
			<line class="st6" x1="398.2" y1="526.2" x2="398.2" y2="531.2"/>
			<line class="st6" x1="484.2" y1="526.2" x2="484.2" y2="531.2"/>
			<line class="st6" x1="570.3" y1="526.2" x2="570.3" y2="531.2"/>
			<text transform="matrix(1 0 0 1 71.03 547.4)" class="st4 st7 st8">1981</text>
			<text transform="matrix(1 0 0 1 672.0263 547.4)" class="st4 st7 st8">2018</text>
			<text transform="matrix(1 0 0 1 121.8806 547.4)" class="st4 st7 st8">1985</text>
			<text transform="matrix(1 0 0 1 207.9807 547.4)" class="st4 st7 st8">1990</text>
			<text transform="matrix(1 0 0 1 294.0807 547.4)" class="st4 st7 st8">1995</text>
			<text transform="matrix(1 0 0 1 380.1807 547.4)" class="st4 st7 st8">2000</text>
			<text transform="matrix(1 0 0 1 466.1807 547.4)" class="st4 st7 st8">2005</text>
			<text transform="matrix(1 0 0 1 552.2806 547.4)" class="st4 st7 st8">2010</text>
		</g>
		<g>
			<text transform="matrix(1 0 0 1 33.1554 520.084)" class="st4 st7 st8">+0%</text>
			<text transform="matrix(1 0 0 1 15.136 456.084)" class="st4 st7 st8">+100%</text>
			<text transform="matrix(1 0 0 1 15.136 392.184)" class="st4 st7 st8">+200%</text>
			<text transform="matrix(1 0 0 1 15.136 328.284)" class="st4 st7 st8">+300%</text>
			<text transform="matrix(1 0 0 1 15.136 264.284)" class="st4 st7 st8">+400%</text>
			<text transform="matrix(1 0 0 1 15.136 200.384)" class="st4 st7 st8">+500%</text>
			<text transform="matrix(1 0 0 1 15.136 136.484)" class="st4 st7 st8">+600%</text>
		</g>
		<g>
			<line class="st6" x1="71" y1="514.9" x2="708.1" y2="514.9"/>
			<line class="st9" x1="71" y1="450.9" x2="708.1" y2="450.9"/>
			<line class="st9" x1="71" y1="387" x2="708.1" y2="387"/>
			<line class="st9" x1="71" y1="323.1" x2="708.1" y2="323.1"/>
			<line class="st9" x1="71" y1="259.1" x2="708.1" y2="259.1"/>
			<line class="st9" x1="71" y1="195.2" x2="708.1" y2="195.2"/>
			<line class="st9" x1="71" y1="131.3" x2="708.1" y2="131.3"/>
		</g>
	</g>
	<g>
		<defs>
			<rect id="SVGID_1_" x="61" y="66.6" width="840" height="490.8"/>
		</defs>
		<clipPath id="SVGID_00000006702319772812370210000011225474891594672309_">
			<use xlink:href="#SVGID_1_"  style="overflow:visible;"/>
		</clipPath>
		<g style="clip-path:url(#SVGID_00000006702319772812370210000011225474891594672309_);">
			<g>
				<g>
					<rect x="708.1" y="76.6" class="st11" width="99.8" height="13.5"/>
					<text transform="matrix(1 0 0 1 712.065 87.4)" class="st12 st7 st13">Production</text>
				</g>
				<g>
					<rect x="708.1" y="310.5" class="st11" width="126.9" height="13.5"/>
					<text transform="matrix(1 0 0 1 712.065 321.35)" class="st14 st7 st13">Area harvested</text>
				</g>
				<g>
					<rect x="708.1" y="449.2" class="st11" width="65.1" height="13.5"/>
					<text transform="matrix(1 0 0 1 712.065 460.05)" class="st15 st7 st13">Yield</text>
				</g>
			</g>
			<g>
				<rect x="71" y="77" class="st16" width="637" height="450"/>
				<g>
					<path class="st17" d="M71,514.9l17.2,2.2l17.3,0.5l17.2-9.7l17.2-5.5l17.2,7.3l17.2,0.4l17.3-10.4l17.2-12.7l17.2,5.4
						l17.2,14.1l17.2,1.3l17.2-9l17.3-6.7l17.2-1.1l17.2,10.3l17.2-8.9l17.2-13.7l17.2,1.9l17.3-4.5l17.2-2.5l17.2-17.8l17.2-16.3
						l17.2-22.7l17.2-10.6l17.3,6.8l17.2,11.1l17.2-5.1l17.2-3.8l17.2-11.8l17.2-4.9l17.3-7.5l17.2-22.1l17.2-17.8l17.2-14.3
						l17.2-7.6l17.2-5.8l17.3-6.1"/>
				</g>
				<g>
					<path class="st17" d="M71,514.9l17.2,7.2l17.3-8.2l17.2,5.2l17.2-5.5l17.2,12.6l17.2-14.8l17.3,5.4l17.2-9.4l17.2,8.7l17.2,6.4
						l17.2-17.4l17.2-3.2l17.3-1.4l17.2-1.4l17.2-1.8l17.2-1.7l17.2-2l17.2-0.7l17.3-1.1l17.2-11.2l17.2,5l17.2-8.3l17.2,18.2
						l17.2,2.5l17.3-5.4l17.2-15.7l17.2-0.1l17.2,6.5l17.2-11.3l17.2-6.2l17.3,17.5l17.2-10.6l17.2,2.3l17.2-5.9l17.2,4.5l17.2-17.2
						l17.3-0.4"/>
				</g>
				<g>
					<path class="st17" d="M71,514.9l17.2,9.2l17.3-7.4l17.2-4.1l17.2-11.7l17.2,21.1l17.2-15.5l17.3-4.4l17.2-25.8L226,494
						l17.2,21.2l17.2-18.3l17.2-14.3l17.3-10l17.2-3.2l17.2,10.7l17.2-13.7l17.2-21l17.2,1.4l17.3-7.8l17.2-21.7l17.2-17.9
						l17.2-41.8l17.2,10.1l17.2-6.9l17.3-5.5l17.2-23l17.2-8.4l17.2,10.6l17.2-48.6l17.2-25.8l17.3,38.2l17.2-67.6l17.2-21.5
						l17.2-45.6l17.2,4.6L690.8,90l17.3-13.4"/>
				</g>
				<g>
					<path class="st18" d="M71,514.9l17.2,2.2l17.3,0.5l17.2-9.7l17.2-5.5l17.2,7.3l17.2,0.4l17.3-10.4l17.2-12.7l17.2,5.4
						l17.2,14.1l17.2,1.3l17.2-9l17.3-6.7l17.2-1.1l17.2,10.3l17.2-8.9l17.2-13.7l17.2,1.9l17.3-4.5l17.2-2.5l17.2-17.8l17.2-16.3
						l17.2-22.7l17.2-10.6l17.3,6.8l17.2,11.1l17.2-5.1l17.2-3.8l17.2-11.8l17.2-4.9l17.3-7.5l17.2-22.1l17.2-17.8l17.2-14.3
						l17.2-7.6l17.2-5.8l17.3-6.1"/>
					<polyline class="st19" points="71,514.9 88.2,517.1 105.5,517.6 122.7,507.9 139.9,502.4 157.1,509.7 174.3,510.1 191.6,499.7 
						208.8,487 226,492.4 243.2,506.5 260.4,507.8 277.6,498.8 294.9,492.1 312.1,491 329.3,501.3 346.5,492.4 363.7,478.7 
						380.9,480.6 398.2,476.1 415.4,473.6 432.6,455.8 449.8,439.5 467,416.8 484.2,406.2 501.5,413 518.7,424.1 535.9,419 
						553.1,415.2 570.3,403.4 587.5,398.5 604.8,391 622,368.9 639.2,351.1 656.4,336.8 673.6,329.2 690.8,323.4 708.1,317.3 					
						"/>
					<g>
						<circle class="st14" cx="71" cy="514.9" r="1.8"/>
						<circle class="st14" cx="88.2" cy="517.1" r="1.8"/>
						<circle class="st14" cx="105.5" cy="517.6" r="1.8"/>
						<circle class="st14" cx="122.7" cy="507.9" r="1.8"/>
						<circle class="st14" cx="139.9" cy="502.4" r="1.8"/>
						<circle class="st14" cx="157.1" cy="509.7" r="1.8"/>
						<circle class="st14" cx="174.3" cy="510.1" r="1.8"/>
						<circle class="st14" cx="191.6" cy="499.7" r="1.8"/>
						<circle class="st14" cx="208.8" cy="487" r="1.8"/>
						<circle class="st14" cx="226" cy="492.4" r="1.8"/>
						<circle class="st14" cx="243.2" cy="506.5" r="1.8"/>
						<circle class="st14" cx="260.4" cy="507.8" r="1.8"/>
						<circle class="st14" cx="277.6" cy="498.8" r="1.8"/>
						<circle class="st14" cx="294.9" cy="492.1" r="1.8"/>
						<circle class="st14" cx="312.1" cy="491" r="1.8"/>
						<circle class="st14" cx="329.3" cy="501.3" r="1.8"/>
						<circle class="st14" cx="346.5" cy="492.4" r="1.8"/>
						<circle class="st14" cx="363.7" cy="478.7" r="1.8"/>
						<circle class="st14" cx="380.9" cy="480.6" r="1.8"/>
						<circle class="st14" cx="398.2" cy="476.1" r="1.8"/>
						<circle class="st14" cx="415.4" cy="473.6" r="1.8"/>
						<circle class="st14" cx="432.6" cy="455.8" r="1.8"/>
						<circle class="st14" cx="449.8" cy="439.5" r="1.8"/>
						<circle class="st14" cx="467" cy="416.8" r="1.8"/>
						<circle class="st14" cx="484.2" cy="406.2" r="1.8"/>
						<circle class="st14" cx="501.5" cy="413" r="1.8"/>
						<circle class="st14" cx="518.7" cy="424.1" r="1.8"/>
						<circle class="st14" cx="535.9" cy="419" r="1.8"/>
						<circle class="st14" cx="553.1" cy="415.2" r="1.8"/>
						<circle class="st14" cx="570.3" cy="403.4" r="1.8"/>
						<circle class="st14" cx="587.5" cy="398.5" r="1.8"/>
						<circle class="st14" cx="604.8" cy="391" r="1.8"/>
						<circle class="st14" cx="622" cy="368.9" r="1.8"/>
						<circle class="st14" cx="639.2" cy="351.1" r="1.8"/>
						<circle class="st14" cx="656.4" cy="336.8" r="1.8"/>
						<circle class="st14" cx="673.6" cy="329.2" r="1.8"/>
						<circle class="st14" cx="690.8" cy="323.4" r="1.8"/>
						<circle class="st14" cx="708.1" cy="317.3" r="1.8"/>
					</g>
				</g>
				<g>
					<path class="st18" d="M71,514.9l17.2,7.2l17.3-8.2l17.2,5.2l17.2-5.5l17.2,12.6l17.2-14.8l17.3,5.4l17.2-9.4l17.2,8.7l17.2,6.4
						l17.2-17.4l17.2-3.2l17.3-1.4l17.2-1.4l17.2-1.8l17.2-1.7l17.2-2l17.2-0.7l17.3-1.1l17.2-11.2l17.2,5l17.2-8.3l17.2,18.2
						l17.2,2.5l17.3-5.4l17.2-15.7l17.2-0.1l17.2,6.5l17.2-11.3l17.2-6.2l17.3,17.5l17.2-10.6l17.2,2.3l17.2-5.9l17.2,4.5l17.2-17.2
						l17.3-0.4"/>
					<polyline class="st20" points="71,514.9 88.2,522.1 105.5,513.9 122.7,519.1 139.9,513.6 157.1,526.2 174.3,511.4 191.6,516.8 
						208.8,507.4 226,516.1 243.2,522.5 260.4,505.1 277.6,501.9 294.9,500.5 312.1,499.1 329.3,497.3 346.5,495.6 363.7,493.6 
						380.9,492.9 398.2,491.8 415.4,480.6 432.6,485.6 449.8,477.3 467,495.5 484.2,498 501.5,492.6 518.7,476.9 535.9,476.8 
						553.1,483.3 570.3,472 587.5,465.8 604.8,483.3 622,472.7 639.2,475 656.4,469.1 673.6,473.6 690.8,456.4 708.1,456 					"/>
					<g>
						<circle class="st15" cx="71" cy="514.9" r="1.8"/>
						<circle class="st15" cx="88.2" cy="522.1" r="1.8"/>
						<circle class="st15" cx="105.5" cy="513.9" r="1.8"/>
						<circle class="st15" cx="122.7" cy="519.1" r="1.8"/>
						<circle class="st15" cx="139.9" cy="513.6" r="1.8"/>
						<circle class="st15" cx="157.1" cy="526.2" r="1.8"/>
						<path class="st15" d="M174.3,509.6c1,0,1.8,0.8,1.8,1.8s-0.8,1.8-1.8,1.8s-1.8-0.8-1.8-1.8S173.3,509.6,174.3,509.6z"/>
						<circle class="st15" cx="191.6" cy="516.8" r="1.8"/>
						<circle class="st15" cx="208.8" cy="507.4" r="1.8"/>
						<circle class="st15" cx="226" cy="516.1" r="1.8"/>
						<circle class="st15" cx="243.2" cy="522.5" r="1.8"/>
						<circle class="st15" cx="260.4" cy="505.1" r="1.8"/>
						<circle class="st15" cx="277.6" cy="501.9" r="1.8"/>
						<circle class="st15" cx="294.9" cy="500.5" r="1.8"/>
						<circle class="st15" cx="312.1" cy="499.1" r="1.8"/>
						<circle class="st15" cx="329.3" cy="497.3" r="1.8"/>
						<circle class="st15" cx="346.5" cy="495.6" r="1.8"/>
						<circle class="st15" cx="363.7" cy="493.6" r="1.8"/>
						<circle class="st15" cx="380.9" cy="492.9" r="1.8"/>
						<circle class="st15" cx="398.2" cy="491.8" r="1.8"/>
						<circle class="st15" cx="415.4" cy="480.6" r="1.8"/>
						<circle class="st15" cx="432.6" cy="485.6" r="1.8"/>
						<circle class="st15" cx="449.8" cy="477.3" r="1.8"/>
						<circle class="st15" cx="467" cy="495.5" r="1.8"/>
						<circle class="st15" cx="484.2" cy="498" r="1.8"/>
						<circle class="st15" cx="501.5" cy="492.6" r="1.8"/>
						<circle class="st15" cx="518.7" cy="476.9" r="1.8"/>
						<circle class="st15" cx="535.9" cy="476.8" r="1.8"/>
						<circle class="st15" cx="553.1" cy="483.3" r="1.8"/>
						<circle class="st15" cx="570.3" cy="472" r="1.8"/>
						<circle class="st15" cx="587.5" cy="465.8" r="1.8"/>
						<circle class="st15" cx="604.8" cy="483.3" r="1.8"/>
						<circle class="st15" cx="622" cy="472.7" r="1.8"/>
						<circle class="st15" cx="639.2" cy="475" r="1.8"/>
						<circle class="st15" cx="656.4" cy="469.1" r="1.8"/>
						<circle class="st15" cx="673.6" cy="473.6" r="1.8"/>
						<circle class="st15" cx="690.8" cy="456.4" r="1.8"/>
						<circle class="st15" cx="708.1" cy="456" r="1.8"/>
					</g>
				</g>
				<g>
					<path class="st18" d="M71,514.9l17.2,9.2l17.3-7.4l17.2-4.1l17.2-11.7l17.2,21.1l17.2-15.5l17.3-4.4l17.2-25.8L226,494
						l17.2,21.2l17.2-18.3l17.2-14.3l17.3-10l17.2-3.2l17.2,10.7l17.2-13.7l17.2-21l17.2,1.4l17.3-7.8l17.2-21.7l17.2-17.9
						l17.2-41.8l17.2,10.1l17.2-6.9l17.3-5.5l17.2-23l17.2-8.4l17.2,10.6l17.2-48.6l17.2-25.8l17.3,38.2l17.2-67.6l17.2-21.5
						l17.2-45.6l17.2,4.6L690.8,90l17.3-13.4"/>
					<polyline class="st21" points="71,514.9 88.2,524.1 105.5,516.7 122.7,512.6 139.9,500.9 157.1,522 174.3,506.5 191.6,502.1 
						208.8,476.3 226,494 243.2,515.2 260.4,496.9 277.6,482.6 294.9,472.6 312.1,469.4 329.3,480.1 346.5,466.4 363.7,445.4 
						380.9,446.8 398.2,439 415.4,417.3 432.6,399.4 449.8,357.6 467,367.7 484.2,360.8 501.5,355.3 518.7,332.3 535.9,323.9 
						553.1,334.5 570.3,285.9 587.5,260.1 604.8,298.3 622,230.7 639.2,209.2 656.4,163.6 673.6,168.2 690.8,90 708.1,76.6 					"/>
					<g>
						<circle class="st12" cx="71" cy="514.9" r="1.8"/>
						<circle class="st12" cx="88.2" cy="524.1" r="1.8"/>
						<circle class="st12" cx="105.5" cy="516.7" r="1.8"/>
						<circle class="st12" cx="122.7" cy="512.6" r="1.8"/>
						<circle class="st12" cx="139.9" cy="500.9" r="1.8"/>
						<circle class="st12" cx="157.1" cy="522" r="1.8"/>
						<circle class="st12" cx="174.3" cy="506.5" r="1.8"/>
						<circle class="st12" cx="191.6" cy="502.1" r="1.8"/>
						<circle class="st12" cx="208.8" cy="476.3" r="1.8"/>
						<circle class="st12" cx="226" cy="494" r="1.8"/>
						<circle class="st12" cx="243.2" cy="515.2" r="1.8"/>
						<circle class="st12" cx="260.4" cy="496.9" r="1.8"/>
						<circle class="st12" cx="277.6" cy="482.6" r="1.8"/>
						<circle class="st12" cx="294.9" cy="472.6" r="1.8"/>
						<circle class="st12" cx="312.1" cy="469.4" r="1.8"/>
						<circle class="st12" cx="329.3" cy="480.1" r="1.8"/>
						<circle class="st12" cx="346.5" cy="466.4" r="1.8"/>
						<circle class="st12" cx="363.7" cy="445.4" r="1.8"/>
						<circle class="st12" cx="380.9" cy="446.8" r="1.8"/>
						<circle class="st12" cx="398.2" cy="439" r="1.8"/>
						<circle class="st12" cx="415.4" cy="417.3" r="1.8"/>
						<circle class="st12" cx="432.6" cy="399.4" r="1.8"/>
						<circle class="st12" cx="449.8" cy="357.6" r="1.8"/>
						<circle class="st12" cx="467" cy="367.7" r="1.8"/>
						<circle class="st12" cx="484.2" cy="360.8" r="1.8"/>
						<circle class="st12" cx="501.5" cy="355.3" r="1.8"/>
						<circle class="st12" cx="518.7" cy="332.3" r="1.8"/>
						<circle class="st12" cx="535.9" cy="323.9" r="1.8"/>
						<circle class="st12" cx="553.1" cy="334.5" r="1.8"/>
						<circle class="st12" cx="570.3" cy="285.9" r="1.8"/>
						<circle class="st12" cx="587.5" cy="260.1" r="1.8"/>
						<circle class="st12" cx="604.8" cy="298.3" r="1.8"/>
						<circle class="st12" cx="622" cy="230.7" r="1.8"/>
						<circle class="st12" cx="639.2" cy="209.2" r="1.8"/>
						<circle class="st12" cx="656.4" cy="163.6" r="1.8"/>
						<circle class="st12" cx="673.6" cy="168.2" r="1.8"/>
						<circle class="st12" cx="690.8" cy="90" r="1.8"/>
						<circle class="st12" cx="708.1" cy="76.6" r="1.8"/>
					</g>
				</g>
			</g>
		</g>
	</g>
</g>
<g>
	<g>
		<text transform="matrix(1 0 0 1 15 582.48)" class="st22 st7 st23">Source: UN Food and Agriculture Organization (FAO)</text>
	</g>
	<a>
	</a>
	<text transform="matrix(1 0 0 1 541.546 582.48)" class="st22 st7 st23">OurWorldInData.org/agricultural-production</text>
	<text transform="matrix(1 0 0 1 782.2319 582.48)" class="st22 st7 st23"> • </text>
	<a>
	</a>
	<text transform="matrix(1 0 0 1 793.6445 582.48)" class="st22 st7 st23">CC BY</text>
</g>
<path class="st0" d="z"/>
</svg>
